<svg width="142" height="29" viewBox="0 0 142 29" fill="none" xmlns="http://www.w3.org/2000/svg">
<g filter="url(#filter0_d_1_158)">
<path d="M13.253 4.25437C13.5036 3.62359 14.3964 3.62359 14.647 4.25437L17.0868 10.3954C17.1916 10.6591 17.4361 10.8411 17.7187 10.8657L24.0807 11.4201C24.7326 11.4769 25.0042 12.2829 24.5197 12.7227L19.6251 17.165C19.4254 17.3463 19.3384 17.6209 19.3973 17.8841L20.8701 24.4656C21.0163 25.1192 20.2978 25.6221 19.7338 25.261L14.3544 21.8165C14.1079 21.6586 13.7921 21.6586 13.5456 21.8165L8.16624 25.261C7.60222 25.6221 6.88365 25.1192 7.0299 24.4656L8.50272 17.8841C8.56163 17.6209 8.47463 17.3463 8.27487 17.165L3.38031 12.7227C2.89578 12.2829 3.16738 11.4769 3.81924 11.4201L10.1813 10.8657C10.4639 10.8411 10.7084 10.6591 10.8132 10.3954L13.253 4.25437Z" fill="#FECF47"/>
</g>
<g filter="url(#filter1_d_1_158)">
<path d="M42.153 4.25437C42.4036 3.62359 43.2964 3.62359 43.547 4.25437L45.9869 10.3954C46.0916 10.6591 46.3361 10.8411 46.6187 10.8657L52.9808 11.4201C53.6326 11.4769 53.9042 12.2829 53.4197 12.7227L48.5251 17.165C48.3254 17.3463 48.2384 17.6209 48.2973 17.8841L49.7701 24.4656C49.9164 25.1192 49.1978 25.6221 48.6338 25.261L43.2545 21.8165C43.0079 21.6586 42.6921 21.6586 42.4456 21.8165L37.0663 25.261C36.5022 25.6221 35.7837 25.1192 35.9299 24.4656L37.4027 17.8841C37.4617 17.6209 37.3747 17.3463 37.1749 17.165L32.2803 12.7227C31.7958 12.2829 32.0674 11.4769 32.7193 11.4201L39.0813 10.8657C39.3639 10.8411 39.6084 10.6591 39.7132 10.3954L42.153 4.25437Z" fill="#FECF47"/>
</g>
<g filter="url(#filter2_d_1_158)">
<path d="M71.053 4.25437C71.3036 3.62359 72.1964 3.62359 72.447 4.25437L74.8868 10.3954C74.9916 10.6591 75.2361 10.8411 75.5187 10.8657L81.8807 11.4201C82.5326 11.4769 82.8042 12.2829 82.3197 12.7227L77.4251 17.165C77.2254 17.3463 77.1383 17.6209 77.1973 17.8841L78.6701 24.4656C78.8163 25.1192 78.0978 25.6221 77.5337 25.261L72.1544 21.8165C71.9079 21.6586 71.5921 21.6586 71.3455 21.8165L65.9662 25.261C65.4022 25.6221 64.6836 25.1192 64.8299 24.4656L66.3027 17.8841C66.3616 17.6209 66.2746 17.3463 66.0749 17.165L61.1803 12.7227C60.6958 12.2829 60.9674 11.4769 61.6192 11.4201L67.9813 10.8657C68.2639 10.8411 68.5084 10.6591 68.6131 10.3954L71.053 4.25437Z" fill="#FECF47"/>
</g>
<g filter="url(#filter3_d_1_158)">
<path d="M99.9529 4.25437C100.204 3.62359 101.096 3.62359 101.347 4.25437L103.787 10.3954C103.892 10.6591 104.136 10.8411 104.419 10.8657L110.781 11.4201C111.433 11.4769 111.704 12.2829 111.22 12.7227L106.325 17.165C106.125 17.3463 106.038 17.6209 106.097 17.8841L107.57 24.4656C107.716 25.1192 106.998 25.6221 106.434 25.261L101.054 21.8165C100.808 21.6586 100.492 21.6586 100.246 21.8165L94.8662 25.261C94.3022 25.6221 93.5836 25.1192 93.7299 24.4656L95.2027 17.8841C95.2616 17.6209 95.1746 17.3463 94.9748 17.165L90.0803 12.7227C89.5957 12.2829 89.8673 11.4769 90.5192 11.4201L96.8812 10.8657C97.1638 10.8411 97.4084 10.6591 97.5131 10.3954L99.9529 4.25437Z" fill="#FECF47"/>
</g>
<path d="M129.898 4.39283L132.338 10.5339C132.495 10.9294 132.862 11.2023 133.286 11.2393L139.648 11.7937C139.974 11.8221 140.11 12.2251 139.868 12.445L134.973 16.8873C134.673 17.1592 134.543 17.5711 134.631 17.966L136.104 24.5475C136.177 24.8743 135.818 25.1258 135.536 24.9452L130.157 21.5007C129.787 21.2639 129.313 21.2639 128.943 21.5007L123.564 24.9452C123.282 25.1258 122.923 24.8743 122.996 24.5475L124.469 17.966C124.557 17.5711 124.427 17.1592 124.127 16.8873L119.232 12.445C118.99 12.2251 119.126 11.8221 119.452 11.7937L125.814 11.2393C126.238 11.2023 126.605 10.9294 126.762 10.5339L129.201 4.39282C129.327 4.07744 129.773 4.07744 129.898 4.39283Z" stroke="white" stroke-width="0.75"/>
<defs>
<filter id="filter0_d_1_158" x="0.133301" y="0.781311" width="27.6334" height="27.6004" filterUnits="userSpaceOnUse" color-interpolation-filters="sRGB">
<feFlood flood-opacity="0" result="BackgroundImageFix"/>
<feColorMatrix in="SourceAlpha" type="matrix" values="0 0 0 0 0 0 0 0 0 0 0 0 0 0 0 0 0 0 127 0" result="hardAlpha"/>
<feOffset/>
<feGaussianBlur stdDeviation="1.5"/>
<feComposite in2="hardAlpha" operator="out"/>
<feColorMatrix type="matrix" values="0 0 0 0 0 0 0 0 0 0 0 0 0 0 0 0 0 0 0.12 0"/>
<feBlend mode="normal" in2="BackgroundImageFix" result="effect1_dropShadow_1_158"/>
<feBlend mode="normal" in="SourceGraphic" in2="effect1_dropShadow_1_158" result="shape"/>
</filter>
<filter id="filter1_d_1_158" x="29.0333" y="0.781311" width="27.6334" height="27.6004" filterUnits="userSpaceOnUse" color-interpolation-filters="sRGB">
<feFlood flood-opacity="0" result="BackgroundImageFix"/>
<feColorMatrix in="SourceAlpha" type="matrix" values="0 0 0 0 0 0 0 0 0 0 0 0 0 0 0 0 0 0 127 0" result="hardAlpha"/>
<feOffset/>
<feGaussianBlur stdDeviation="1.5"/>
<feComposite in2="hardAlpha" operator="out"/>
<feColorMatrix type="matrix" values="0 0 0 0 0 0 0 0 0 0 0 0 0 0 0 0 0 0 0.12 0"/>
<feBlend mode="normal" in2="BackgroundImageFix" result="effect1_dropShadow_1_158"/>
<feBlend mode="normal" in="SourceGraphic" in2="effect1_dropShadow_1_158" result="shape"/>
</filter>
<filter id="filter2_d_1_158" x="57.9333" y="0.781311" width="27.6334" height="27.6004" filterUnits="userSpaceOnUse" color-interpolation-filters="sRGB">
<feFlood flood-opacity="0" result="BackgroundImageFix"/>
<feColorMatrix in="SourceAlpha" type="matrix" values="0 0 0 0 0 0 0 0 0 0 0 0 0 0 0 0 0 0 127 0" result="hardAlpha"/>
<feOffset/>
<feGaussianBlur stdDeviation="1.5"/>
<feComposite in2="hardAlpha" operator="out"/>
<feColorMatrix type="matrix" values="0 0 0 0 0 0 0 0 0 0 0 0 0 0 0 0 0 0 0.12 0"/>
<feBlend mode="normal" in2="BackgroundImageFix" result="effect1_dropShadow_1_158"/>
<feBlend mode="normal" in="SourceGraphic" in2="effect1_dropShadow_1_158" result="shape"/>
</filter>
<filter id="filter3_d_1_158" x="86.8333" y="0.781311" width="27.6334" height="27.6004" filterUnits="userSpaceOnUse" color-interpolation-filters="sRGB">
<feFlood flood-opacity="0" result="BackgroundImageFix"/>
<feColorMatrix in="SourceAlpha" type="matrix" values="0 0 0 0 0 0 0 0 0 0 0 0 0 0 0 0 0 0 127 0" result="hardAlpha"/>
<feOffset/>
<feGaussianBlur stdDeviation="1.5"/>
<feComposite in2="hardAlpha" operator="out"/>
<feColorMatrix type="matrix" values="0 0 0 0 0 0 0 0 0 0 0 0 0 0 0 0 0 0 0.12 0"/>
<feBlend mode="normal" in2="BackgroundImageFix" result="effect1_dropShadow_1_158"/>
<feBlend mode="normal" in="SourceGraphic" in2="effect1_dropShadow_1_158" result="shape"/>
</filter>
</defs>
</svg>
